<svg xmlns="http://www.w3.org/2000/svg" xmlns:svg="http://www.w3.org/2000/svg" id="svg4190" width="240" height="240" version="1.1" viewBox="0 0 240 240"><metadata id="metadata4196"/><path style="fill:#fff" id="path4200" d="m 30.763206,178.1052 c -0.359322,-0.93637 -0.483733,-5.2995 -0.27647,-9.69583 l 0.376841,-7.99334 89.375003,0 89.375,0 0,9.375 0,9.375 -89.09853,0.32084 c -74.251853,0.26737 -89.207398,0.0371 -89.751844,-1.38167 z m 0,-50 c -0.359322,-0.93637 -0.483733,-5.29949 -0.27647,-9.69583 l 0.376841,-7.99334 89.375003,0 89.375,0 0,9.375 0,9.375 -89.09853,0.32084 c -74.251853,0.26737 -89.207398,0.0371 -89.751844,-1.38167 z m 0,-49.999999 C 30.403884,77.168827 30.279473,72.8057 30.486736,68.409362 l 0.376841,-7.993341 89.375003,0 89.375,0 0,9.375 0,9.375 -89.09853,0.320839 C 46.263197,79.754237 31.307652,79.52401 30.763206,78.105201 Z"/></svg>